<svg width="33" height="32" viewBox="0 0 33 32" fill="none" xmlns="http://www.w3.org/2000/svg">
<rect x="0.30957" width="32" height="32" rx="16" fill="#FEE4E2"/>
<path d="M16.3096 6C14.3318 6 12.3984 6.58649 10.7539 7.6853C9.10938 8.78412 7.82766 10.3459 7.07078 12.1732C6.3139 14.0004 6.11587 16.0111 6.50172 17.9509C6.88757 19.8907 7.83998 21.6725 9.23851 23.0711C10.637 24.4696 12.4189 25.422 14.3587 25.8078C16.2985 26.1937 18.3091 25.9957 20.1364 25.2388C21.9637 24.4819 23.5255 23.2002 24.6243 21.5557C25.7231 19.9112 26.3096 17.9778 26.3096 16C26.3068 13.3487 25.2523 10.8068 23.3775 8.93202C21.5028 7.05727 18.9609 6.0028 16.3096 6ZM15.5403 11.3846C15.5403 11.1806 15.6214 10.9849 15.7656 10.8407C15.9099 10.6964 16.1056 10.6154 16.3096 10.6154C16.5136 10.6154 16.7092 10.6964 16.8535 10.8407C16.9978 10.9849 17.0788 11.1806 17.0788 11.3846V16.7692C17.0788 16.9732 16.9978 17.1689 16.8535 17.3132C16.7092 17.4574 16.5136 17.5385 16.3096 17.5385C16.1056 17.5385 15.9099 17.4574 15.7656 17.3132C15.6214 17.1689 15.5403 16.9732 15.5403 16.7692V11.3846ZM16.3096 21.3846C16.0814 21.3846 15.8583 21.3169 15.6685 21.1902C15.4788 21.0634 15.3309 20.8832 15.2436 20.6723C15.1562 20.4615 15.1334 20.2295 15.1779 20.0057C15.2224 19.7818 15.3323 19.5762 15.4937 19.4149C15.655 19.2535 15.8606 19.1436 16.0845 19.0991C16.3083 19.0546 16.5403 19.0774 16.7511 19.1648C16.962 19.2521 17.1422 19.4 17.269 19.5897C17.3957 19.7795 17.4634 20.0026 17.4634 20.2308C17.4634 20.5368 17.3419 20.8303 17.1255 21.0467C16.9091 21.263 16.6156 21.3846 16.3096 21.3846Z" fill="#DF2618"/>
</svg>
