<svg width="20" height="20" viewBox="0 0 20 20" fill="none" xmlns="http://www.w3.org/2000/svg">
<path d="M18.5781 5.44291L14.5562 1.42187C14.4225 1.28812 14.2637 1.18203 14.089 1.10964C13.9143 1.03726 13.727 1 13.5379 1C13.3488 1 13.1615 1.03726 12.9868 1.10964C12.812 1.18203 12.6533 1.28812 12.5196 1.42187L1.42209 12.5193C1.2878 12.6526 1.18133 12.8112 1.10887 12.9859C1.03641 13.1606 0.999403 13.348 1.00001 13.5372V17.5592C1.00001 17.941 1.15172 18.3073 1.42176 18.5773C1.6918 18.8474 2.05805 18.9991 2.43995 18.9991H17.5594C17.7503 18.9991 17.9334 18.9232 18.0685 18.7882C18.2035 18.6532 18.2793 18.4701 18.2793 18.2791C18.2793 18.0882 18.2035 17.905 18.0685 17.77C17.9334 17.635 17.7503 17.5592 17.5594 17.5592H8.49852L18.5781 7.47953C18.7119 7.34582 18.818 7.18707 18.8904 7.01234C18.9627 6.83762 19 6.65035 19 6.46122C19 6.2721 18.9627 6.08483 18.8904 5.9101C18.818 5.73538 18.7119 5.57663 18.5781 5.44291ZM6.4619 17.5592H2.43995V13.5372L10.3596 5.61751L14.3816 9.63945L6.4619 17.5592ZM15.3995 8.62159L11.3784 4.59964L13.5383 2.43973L17.5594 6.46167L15.3995 8.62159Z" fill="#1A212C"/>
</svg>
