<svg width="36" height="36" viewBox="0 0 36 36" fill="none" xmlns="http://www.w3.org/2000/svg">
<rect width="36" height="36" rx="18" fill="#DCFAE6"/>
<path fill-rule="evenodd" clip-rule="evenodd" d="M18 7C11.9249 7 7 11.9249 7 18C7 24.0751 11.9249 29 18 29C24.0751 29 29 24.0751 29 18C29 11.9249 24.0751 7 18 7ZM23.2071 15.7071C23.5976 15.3166 23.5976 14.6834 23.2071 14.2929C22.8166 13.9024 22.1834 13.9024 21.7929 14.2929L16.5 19.5858L14.2071 17.2929C13.8166 16.9024 13.1834 16.9024 12.7929 17.2929C12.4024 17.6834 12.4024 18.3166 12.7929 18.7071L15.7929 21.7071C16.1834 22.0976 16.8166 22.0976 17.2071 21.7071L23.2071 15.7071Z" fill="#0AAF65"/>
</svg>
